REM DISCID 6F0E2E18
REM COMMENT "ExactAudioCopy v1.0b3"
PERFORMER "Unknown Artist"
TITLE "Unknown Title"
FILE "kamichu.wav" WAVE
  TRACK 01 AUDIO
    TITLE "Track01"
    PERFORMER "Unknown Artist"
    ISRC JPE300501541
    INDEX 01 00:00:00
  TRACK 02 AUDIO
    TITLE "Track02"
    PERFORMER "Unknown Artist"
    ISRC JPE300501542
    INDEX 00 02:49:20
    INDEX 01 02:52:20
  TRACK 03 AUDIO
    TITLE "Track03"
    PERFORMER "Unknown Artist"
    ISRC JPE300501543
    INDEX 00 05:59:56
    INDEX 01 06:02:56
  TRACK 04 AUDIO
    TITLE "Track04"
    PERFORMER "Unknown Artist"
    ISRC JPE300501544
    INDEX 00 08:25:11
    INDEX 01 08:28:11
  TRACK 05 AUDIO
    TITLE "Track05"
    PERFORMER "Unknown Artist"
    ISRC JPE300501545
    INDEX 00 11:40:46
    INDEX 01 11:43:46
  TRACK 06 AUDIO
    TITLE "Track06"
    PERFORMER "Unknown Artist"
    ISRC JPE300501546
    INDEX 00 14:54:67
    INDEX 01 14:57:65
  TRACK 07 AUDIO
    TITLE "Track07"
    PERFORMER "Unknown Artist"
    ISRC JPE300501547
    INDEX 00 18:03:56
    INDEX 01 18:06:56
  TRACK 08 AUDIO
    TITLE "Track08"
    PERFORMER "Unknown Artist"
    ISRC JPE300501548
    INDEX 00 20:20:65
    INDEX 01 20:23:65
  TRACK 09 AUDIO
    TITLE "Track09"
    PERFORMER "Unknown Artist"
    ISRC JPE300501549
    INDEX 00 23:33:61
    INDEX 01 23:36:60
  TRACK 10 AUDIO
    TITLE "Track10"
    PERFORMER "Unknown Artist"
    ISRC JPE300501550
    INDEX 00 26:09:45
    INDEX 01 26:12:44
  TRACK 11 AUDIO
    TITLE "Track11"
    PERFORMER "Unknown Artist"
    ISRC JPE300501551
    INDEX 00 28:54:09
    INDEX 01 28:57:09
  TRACK 12 AUDIO
    TITLE "Track12"
    PERFORMER "Unknown Artist"
    ISRC JPE300501552
    INDEX 00 30:34:34
    INDEX 01 30:37:34
  TRACK 13 AUDIO
    TITLE "Track13"
    PERFORMER "Unknown Artist"
    ISRC JPE300501553
    INDEX 00 34:08:62
    INDEX 01 34:11:62
  TRACK 14 AUDIO
    TITLE "Track14"
    PERFORMER "Unknown Artist"
    ISRC JPE300501554
    INDEX 00 36:18:32
    INDEX 01 36:21:32
  TRACK 15 AUDIO
    TITLE "Track15"
    PERFORMER "Unknown Artist"
    ISRC JPE300501555
    INDEX 00 38:54:25
    INDEX 01 38:57:25
  TRACK 16 AUDIO
    TITLE "Track16"
    PERFORMER "Unknown Artist"
    ISRC JPE300501556
    INDEX 00 40:44:41
    INDEX 01 40:47:40
  TRACK 17 AUDIO
    TITLE "Track17"
    PERFORMER "Unknown Artist"
    ISRC JPE300501557
    INDEX 00 43:48:55
    INDEX 01 43:51:54
  TRACK 18 AUDIO
    TITLE "Track18"
    PERFORMER "Unknown Artist"
    ISRC JPE300501558
    INDEX 00 45:24:53
    INDEX 01 45:27:52
  TRACK 19 AUDIO
    TITLE "Track19"
    PERFORMER "Unknown Artist"
    ISRC JPE300501559
    INDEX 00 48:12:54
    INDEX 01 48:15:54
  TRACK 20 AUDIO
    TITLE "Track20"
    PERFORMER "Unknown Artist"
    ISRC JPE300501560
    INDEX 00 50:09:32
    INDEX 01 50:12:32
  TRACK 21 AUDIO
    TITLE "Track21"
    PERFORMER "Unknown Artist"
    ISRC JPE300501561
    INDEX 00 52:54:60
    INDEX 01 52:57:59
  TRACK 22 AUDIO
    TITLE "Track22"
    PERFORMER "Unknown Artist"
    ISRC JPE300501562
    INDEX 00 55:37:34
    INDEX 01 55:40:34
  TRACK 23 AUDIO
    TITLE "Track23"
    PERFORMER "Unknown Artist"
    ISRC JPE300501563
    INDEX 00 57:42:03
    INDEX 01 57:46:03
  TRACK 24 AUDIO
    TITLE "Track24"
    PERFORMER "Unknown Artist"
    ISRC JPE300501564
    INDEX 00 59:16:39
    INDEX 01 59:19:39
